grf
version=1
nRows=12
nColumns=28
inDegrees=no
endheader
time	ground_force_1_vx	ground_force_1_vy	ground_force_1_vz	ground_force_1_px	ground_force_1_py	ground_force_1_pz	ground_moment_1_mx	ground_moment_1_my	ground_moment_1_mz	ground_force_2_vx	ground_force_2_vy	ground_force_2_vz	ground_force_2_px	ground_force_2_py	ground_force_2_pz	ground_moment_2_mx	ground_moment_2_my	ground_moment_2_mz	ground_force_3_vx	ground_force_3_vy	ground_force_3_vz	ground_force_3_px	ground_force_3_py	ground_force_3_pz	ground_moment_3_mx	ground_moment_3_my	ground_moment_3_mz
      0.00000000	      0.44470617	      0.44920945	      2.29506029	    340.51658718	  -1315.34764833	      2.11468014	      0.06050141	      0.21877389	    119.87631042	      0.62153421	      0.38918901	      2.01193513	    138.18749316	  -1514.31883334	      0.32333227	     -0.01840136	     -0.23798363	    285.16945722	      1.30607153	     -0.89433503	      4.79007827	    464.81421216	   -341.21595707	      0.50261270	     -0.08920246	      0.65527477	    319.07959304
      0.01000000	      0.62257776	      0.33899208	      1.95909274	    292.21966618	  -1262.13400757	      2.04194081	      0.07918660	      0.28633976	    156.89876850	      0.57410373	     -0.03685053	      1.38696349	    -43.16066653	  -1299.74790598	      0.49069702	     -0.01879571	     -0.24308371	    291.28074942	      1.57078249	     -0.69210942	      4.84539055	    440.12332146	   -290.63880621	      0.39184279	     -0.13098514	      0.96220724	    468.53733335
      0.02000000	      0.22245787	      0.48803805	      1.59084865	    297.53048367	  -1286.60246108	      2.08391529	      0.08424804	      0.30464200	    166.92741343	      0.35900601	      0.16168477	      1.02809237	   -217.68558383	  -1199.09764314	      0.56343138	     -0.01908089	     -0.24677193	    295.70024364	      1.72271161	     -0.88572399	      4.47344952	    467.56555379	   -290.04107540	      0.39828706	     -0.11777646	      0.86517725	    421.28953899
      0.03000000	      0.50366593	      0.38510459	      1.41638289	    265.83422468	  -1347.10021665	      2.21032057	      0.07895361	      0.28549728	    156.43713605	      0.35250528	      0.12944191	      1.22311467	   -126.67489439	  -1377.38262371	      0.42051921	     -0.01830664	     -0.23675868	    283.70162795	      1.65015791	     -0.77022534	      4.72628502	    448.12940934	   -317.12323237	      0.44847048	     -0.09927518	      0.72926822	    355.10997614
      0.04000000	      0.35816622	      0.51862133	      1.93766001	    291.12302297	  -1290.09152832	      2.09351667	      0.08547858	      0.30909164	    169.36557692	      0.61464698	      0.16786468	      1.92304460	    104.91576136	  -1552.60864876	      0.28923116	     -0.01466927	     -0.18971674	    227.33253216	      1.69809547	     -0.86679783	      4.30765265	    426.71082460	   -316.79421860	      0.44180698	     -0.08188070	      0.60148965	    292.88945683
      0.05000000	      0.48509775	      0.32767606	      1.74203541	    298.19698722	  -1302.54694040	      2.11267753	      0.04024126	      0.14551292	     79.73324457	      0.42721627	      0.27188323	      1.22236291	   -102.43986972	  -1422.59047230	      0.38435555	     -0.02246158	     -0.29049426	    348.09155456	      1.46374215	     -0.81568256	      4.08202985	    444.87465433	   -249.57676560	      0.30884441	     -0.11876360	      0.87242870	    424.82055962
      0.06000000	      0.63284683	      0.42676319	      1.33561955	    225.91132406	  -1374.85360981	      2.28111945	      0.03712520	      0.13424520	     73.55914334	      0.61450399	      0.17603962	      1.75708034	    113.54437039	  -1559.57658979	      0.28397296	     -0.01085422	     -0.14037694	    168.20996201	      1.70890861	     -0.92201829	      4.41718441	    445.06523143	   -309.04576939	      0.43102564	     -0.11576392	      0.85039328	    414.09062976
      0.07000000	      0.43149357	      1.02870841	      1.73413095	    308.39448731	  -1269.33772969	      2.04692417	      0.12426310	      0.44933699	    246.21247518	      0.42847826	     -0.02613881	      1.62291891	     88.43610611	  -1616.91254969	      0.23450397	     -0.00472090	     -0.06105511	     73.16072081	    -28.67098362	     46.14017539	   -104.21739223	    498.62172455	   -140.11214252	      0.09906906	      0.13701080	     -1.00647130	   -490.09128063
      0.08000000	     -0.57537211	      0.74218285	      1.87445168	    258.46979504	  -1254.03054759	      2.04418553	      0.22085077	      0.79859925	    437.58938884	      0.64295625	     -0.15488916	      2.20816521	    196.38620080	  -1694.70532711	      0.17654903	     -0.00083506	     -0.01079971	     12.94101126	   -157.00719479	    175.68222637	   -956.55750674	    485.63416384	   -193.52142182	      0.20512169	     -0.62395509	      4.58352853	   2231.90405572
      0.09000000	      0.34279173	      0.13483319	      1.85805781	    302.98328325	  -1346.39006996	      2.19027547	      0.03358412	      0.12144062	     66.54292307	      0.41089346	     -0.15438218	      1.95093106	    137.97599054	  -1519.23638236	      0.31921476	     -0.00407038	     -0.05264196	     63.07945689	    -53.46762926	    146.62649852	  -1709.57063137	    465.98125827	   -192.51367108	      0.19755793	     -1.14490923	      8.41041956	   4095.37093281
      0.10000000	     -0.00091594	      0.85220625	      1.82272327	    260.47581873	  -1233.94185835	      2.00651130	      0.14243144	      0.51503392	    282.21085398	      0.50421096	      0.46724500	      0.69549870	   -661.98618407	  -1277.83762147	      0.46905045	     -0.05156965	     -0.66694713	    799.18501739	    110.02143907	    122.61501237	  -1892.24481108	    454.21174759	   -204.01786540	      0.21789310	      0.33776367	     -2.48118722	  -1208.18966841
      0.11000000	      0.26628711	      0.45602928	      1.11508280	    173.22553096	  -1336.67259823	      2.23802968	      0.09121169	      0.32982267	    180.72506139	      0.54786646	      0.03144712	      0.62672486	   -530.65950162	  -1127.04232430	      0.60336848	     -0.02541248	     -0.32865807	    393.82223406	     43.65813270	    336.39935762	  -2003.56364650	    457.18791978	   -230.89792765	      0.27392711	      2.05770087	    -15.11572029	  -7360.45105409
